<svg width="23" height="26" viewBox="0 0 23 26" fill="none" xmlns="http://www.w3.org/2000/svg">
<path d="M15.978 0H6.14137C1.22307 0 0 1.31415 0 6.55774V21.2086C0 24.6696 1.89966 25.4893 4.20268 23.0171L4.21569 23.0041C5.28262 21.8721 6.90905 21.9632 7.83285 23.1993L9.147 24.9558C10.2009 26.3481 11.9054 26.3481 12.9593 24.9558L14.2735 23.1993C15.2103 21.9502 16.8367 21.8591 17.9037 23.0041C20.2197 25.4763 22.1063 24.6566 22.1063 21.1955V6.55774C22.1194 1.31415 20.8963 0 15.978 0ZM7.15626 6.50569C7.87189 6.50569 8.4574 7.09121 8.4574 7.80683C8.4574 8.52246 7.8849 9.10797 7.15626 9.10797C6.42762 9.10797 5.85512 8.52246 5.85512 7.80683C5.85512 7.09121 6.42762 6.50569 7.15626 6.50569ZM14.9631 15.6137C14.2345 15.6137 13.662 15.0281 13.662 14.3125C13.662 13.5969 14.2475 13.0114 14.9631 13.0114C15.6787 13.0114 16.2642 13.5969 16.2642 14.3125C16.2642 15.0281 15.6917 15.6137 14.9631 15.6137ZM16.1341 7.27336L7.37746 16.03C7.18228 16.2252 6.93507 16.3163 6.68785 16.3163C6.44064 16.3163 6.19342 16.2252 5.99825 16.03C5.62092 15.6527 5.62092 15.0282 5.99825 14.6508L14.7549 5.89416C15.1322 5.51683 15.7568 5.51683 16.1341 5.89416C16.5114 6.27149 16.5114 6.89603 16.1341 7.27336Z" fill="white"/>
</svg>
