<svg width="28" height="26" viewBox="0 0 28 26" fill="none" xmlns="http://www.w3.org/2000/svg">
<path d="M14.6275 23.8859C15.0034 23.9733 15.0378 24.4657 14.6717 24.5877L12.5101 25.2991C7.07866 27.0503 4.2193 25.5864 2.45442 20.155L0.703231 14.7509C-1.04796 9.31947 0.402245 6.44642 5.83368 4.69522L6.55056 4.45781C7.10173 4.27529 7.63812 4.8281 7.48162 5.38721C7.40404 5.66434 7.32941 5.95358 7.25652 6.25489L5.91576 11.9873C4.41083 18.4312 6.6135 21.9883 13.0574 23.5206L14.6275 23.8859Z" fill="white"/>
<path d="M20.776 0.969371L18.4913 0.435805C13.9217 -0.645009 11.1992 0.244268 9.59845 3.55512C9.18802 4.38967 8.85967 5.40208 8.58604 6.56498L7.24529 12.2973C5.90453 18.0161 7.6694 20.8344 13.3745 22.1888L15.6729 22.7361C16.4664 22.9276 17.2052 23.0508 17.8893 23.1055C22.1578 23.5159 24.4289 21.5185 25.5781 16.5796L26.9189 10.8608C28.2596 5.14214 26.5084 2.31013 20.776 0.969371ZM18.2039 14.8147C18.0808 15.2798 17.6704 15.5808 17.2052 15.5808C17.1231 15.5808 17.041 15.5671 16.9453 15.5535L12.9641 14.5411C12.4168 14.4042 12.0885 13.8433 12.2253 13.2961C12.3621 12.7488 12.923 12.4205 13.4703 12.5573L17.4515 13.5697C18.0124 13.7065 18.3408 14.2674 18.2039 14.8147ZM22.2125 10.1905C22.0894 10.6556 21.679 10.9566 21.2138 10.9566C21.1317 10.9566 21.0496 10.9429 20.9539 10.9292L14.3185 9.24649C13.7712 9.10968 13.4429 8.54875 13.5797 8.0015C13.7165 7.45426 14.2774 7.12591 14.8247 7.26272L21.4601 8.9455C22.021 9.06863 22.3493 9.62956 22.2125 10.1905Z" fill="white"/>
</svg>
