<svg width="38" height="38" viewBox="0 0 38 38" fill="none" xmlns="http://www.w3.org/2000/svg">
<path d="M19 0C8.512 0 0 8.512 0 19C0 29.488 8.512 38 19 38C29.488 38 38 29.488 38 19C38 8.512 29.488 0 19 0ZM26.657 20.007L20.957 25.707C20.672 25.992 20.311 26.125 19.95 26.125C19.589 26.125 19.228 25.992 18.943 25.707C18.392 25.156 18.392 24.244 18.943 23.693L22.211 20.425H12.35C11.571 20.425 10.925 19.779 10.925 19C10.925 18.221 11.571 17.575 12.35 17.575H22.211L18.943 14.307C18.392 13.756 18.392 12.844 18.943 12.293C19.494 11.742 20.406 11.742 20.957 12.293L26.657 17.993C27.208 18.544 27.208 19.456 26.657 20.007Z" fill="white"/>
</svg>
