<svg width="26" height="26" viewBox="0 0 26 26" fill="none" xmlns="http://www.w3.org/2000/svg">
<path d="M13 26C5.82884 26 0 20.1712 0 13C0 5.82884 5.82884 0 13 0C20.1712 0 26 5.82884 26 13C26 20.1712 20.1712 26 13 26ZM13 1.81395C6.83256 1.81395 1.81395 6.83256 1.81395 13C1.81395 19.1674 6.83256 24.186 13 24.186C19.1674 24.186 24.186 19.1674 24.186 13C24.186 6.83256 19.1674 1.81395 13 1.81395Z" fill="black"/>
<path d="M11.4759 18.176C11.2462 18.176 11.0164 18.0914 10.835 17.91C10.4843 17.5593 10.4843 16.9788 10.835 16.6281L14.4629 13.0002L10.835 9.37228C10.4843 9.02158 10.4843 8.44111 10.835 8.09042C11.1857 7.73972 11.7662 7.73972 12.1169 8.09042L16.3857 12.3593C16.7364 12.71 16.7364 13.2905 16.3857 13.6412L12.1169 17.91C11.9355 18.0914 11.7057 18.176 11.4759 18.176Z" fill="black"/>
</svg>
