<svg width="23" height="26" viewBox="0 0 23 26" fill="none" xmlns="http://www.w3.org/2000/svg">
<path d="M21.842 9.05C20.9711 8.08811 19.6582 7.52918 17.8384 7.3342V6.34631C17.8384 4.56552 17.0845 2.84972 15.7587 1.65385C14.4198 0.431995 12.678 -0.13994 10.8712 0.0290409C7.76465 0.328007 5.15195 3.33066 5.15195 6.58029V7.3342C3.33216 7.52918 2.01931 8.08811 1.14841 9.05C-0.112442 10.4538 -0.073447 12.3256 0.0695365 13.6254L0.979432 20.8656C1.2524 23.4003 2.27928 26 7.86864 26H15.1217C20.7111 26 21.738 23.4003 22.0109 20.8786L22.9208 13.6124C23.0638 12.3256 23.0898 10.4538 21.842 9.05ZM11.0532 1.83583C12.3531 1.71885 13.5879 2.1218 14.5498 2.9927C15.4987 3.8506 16.0316 5.07246 16.0316 6.34631V7.25621H6.95874V6.58029C6.95874 4.26655 8.86952 2.04381 11.0532 1.83583ZM6.84176 14.4963H6.82876C6.11384 14.4963 5.52891 13.9114 5.52891 13.1965C5.52891 12.4816 6.11384 11.8966 6.82876 11.8966C7.55667 11.8966 8.14161 12.4816 8.14161 13.1965C8.14161 13.9114 7.55667 14.4963 6.84176 14.4963ZM15.9406 14.4963H15.9276C15.2127 14.4963 14.6278 13.9114 14.6278 13.1965C14.6278 12.4816 15.2127 11.8966 15.9276 11.8966C16.6556 11.8966 17.2405 12.4816 17.2405 13.1965C17.2405 13.9114 16.6556 14.4963 15.9406 14.4963Z" fill="#3B5EDF"/>
</svg>
