<svg width="23" height="26" viewBox="0 0 23 26" fill="none" xmlns="http://www.w3.org/2000/svg">
<path d="M16.9317 8.92801C16.436 8.92801 16.0249 8.51693 16.0249 8.02121V6.3527C16.0249 5.08319 15.4808 3.84992 14.5377 2.99148C13.5826 2.12095 12.3493 1.72196 11.0435 1.84287C8.86721 2.04841 6.95688 4.2731 6.95688 6.59451V7.76731C6.95688 8.26303 6.5458 8.67411 6.05008 8.67411C5.55436 8.67411 5.14328 8.26303 5.14328 7.76731V6.58242C5.14328 3.33002 7.76696 0.331533 10.8743 0.0292658C12.6879 -0.140004 14.4289 0.428258 15.7589 1.64942C17.0768 2.8464 17.8385 4.56327 17.8385 6.3527V8.02121C17.8385 8.51693 17.4274 8.92801 16.9317 8.92801Z" fill="black"/>
<path d="M15.1178 26H7.86345C2.27755 26 1.23775 23.4005 0.971758 20.8735L0.0649566 13.6312C-0.068041 12.3254 -0.116404 10.4514 1.15312 9.04885C2.24128 7.83978 4.04279 7.25943 6.65438 7.25943H16.3269C18.9506 7.25943 20.7521 7.85187 21.8282 9.04885C23.0856 10.4514 23.0493 12.3254 22.9163 13.607L22.0095 20.8735C21.7435 23.4005 20.7037 26 15.1178 26ZM6.65438 9.07303C4.61106 9.07303 3.20854 9.47203 2.49519 10.27C1.90274 10.9229 1.70929 11.9264 1.86647 13.4257L2.77327 20.668C2.97881 22.6025 3.5108 24.1985 7.86345 24.1985H15.1178C19.4705 24.1985 20.0025 22.6146 20.208 20.6922L21.1148 13.4257C21.272 11.9506 21.0786 10.9471 20.4861 10.2821C19.7728 9.47203 18.3702 9.07303 16.3269 9.07303H6.65438Z" fill="black"/>
<path d="M15.6261 14.3928C14.949 14.3928 14.4049 13.8487 14.4049 13.1837C14.4049 12.5188 14.949 11.9747 15.614 11.9747C16.279 11.9747 16.823 12.5188 16.823 13.1837C16.823 13.8487 16.2911 14.3928 15.6261 14.3928Z" fill="black"/>
<path d="M7.1626 14.3928C6.48552 14.3928 5.94144 13.8487 5.94144 13.1837C5.94144 12.5188 6.48552 11.9747 7.15051 11.9747C7.81549 11.9747 8.35957 12.5188 8.35957 13.1837C8.35957 13.8487 7.82758 14.3928 7.1626 14.3928Z" fill="black"/>
</svg>
