<svg width="26" height="26" viewBox="0 0 26 26" fill="none" xmlns="http://www.w3.org/2000/svg">
<path d="M20.3069 11.3776C19.7478 11.3776 19.3058 10.9226 19.3058 10.3765C19.3058 9.89548 18.8248 8.89443 18.0188 8.02339C17.2257 7.17836 16.3547 6.68433 15.6267 6.68433C15.0676 6.68433 14.6256 6.22931 14.6256 5.68329C14.6256 5.13726 15.0806 4.68224 15.6267 4.68224C16.9267 4.68224 18.2918 5.38427 19.4878 6.64533C20.6059 7.82838 21.3209 9.29745 21.3209 10.3635C21.3209 10.9226 20.8659 11.3776 20.3069 11.3776Z" fill="white"/>
<path d="M24.9998 11.3755C24.4407 11.3755 23.9987 10.9205 23.9987 10.3745C23.9987 5.75926 20.2416 2.01509 15.6394 2.01509C15.0803 2.01509 14.6383 1.56007 14.6383 1.01405C14.6383 0.468021 15.0803 0 15.6264 0C21.3466 0 26.0008 4.65421 26.0008 10.3745C26.0008 10.9205 25.5458 11.3755 24.9998 11.3755Z" fill="white"/>
<path d="M11.7655 16.8358L9.36042 19.2409C8.8534 19.7479 8.04736 19.7479 7.52734 19.2539C7.38433 19.1109 7.24133 18.9809 7.09832 18.8378C5.75926 17.4858 4.5502 16.0687 3.47116 14.5867C2.40511 13.1046 1.54707 11.6225 0.923042 10.1535C0.312014 8.67139 0 7.25433 0 5.90227C0 5.01823 0.156007 4.17319 0.468021 3.39315C0.780035 2.60012 1.27406 1.87208 1.96309 1.22206C2.79513 0.403018 3.70517 0 4.66721 0C5.03123 0 5.39524 0.0780036 5.72026 0.234011C6.05827 0.390018 6.35729 0.624028 6.5913 0.962043L9.60743 5.21323C9.84144 5.53825 10.0105 5.83726 10.1275 6.12328C10.2445 6.39629 10.3095 6.6693 10.3095 6.91631C10.3095 7.22833 10.2185 7.54034 10.0365 7.83935C9.86744 8.13837 9.62043 8.45038 9.30842 8.76239L8.32037 9.78944C8.17737 9.93245 8.11236 10.1015 8.11236 10.3095C8.11236 10.4135 8.12537 10.5045 8.15137 10.6085C8.19037 10.7125 8.22937 10.7905 8.25537 10.8685C8.48938 11.2975 8.8924 11.8565 9.46443 12.5326C10.0495 13.2086 10.6735 13.8976 11.3495 14.5867C11.4795 14.7167 11.6225 14.8467 11.7525 14.9767C12.2726 15.4837 12.2856 16.3157 11.7655 16.8358Z" fill="white"/>
<path d="M25.9616 21.2288C25.9616 21.5928 25.8966 21.9698 25.7666 22.3338C25.7276 22.4378 25.6886 22.5418 25.6366 22.6458C25.4156 23.1139 25.1296 23.5559 24.7525 23.9719C24.1155 24.6739 23.4135 25.181 22.6204 25.506C22.6074 25.506 22.5944 25.519 22.5814 25.519C21.8144 25.831 20.9824 26 20.0853 26C18.7593 26 17.3422 25.688 15.8471 25.051C14.3521 24.4139 12.857 23.5559 11.3749 22.4768C10.8679 22.0998 10.3609 21.7228 9.87988 21.3198L14.1311 17.0686C14.4951 17.3416 14.8201 17.5496 15.0931 17.6926C15.1581 17.7186 15.2361 17.7576 15.3271 17.7966C15.4311 17.8356 15.5351 17.8486 15.6521 17.8486C15.8731 17.8486 16.0421 17.7706 16.1852 17.6276L17.1732 16.6526C17.4982 16.3276 17.8102 16.0806 18.1092 15.9245C18.4083 15.7425 18.7073 15.6515 19.0323 15.6515C19.2793 15.6515 19.5393 15.7035 19.8253 15.8205C20.1113 15.9375 20.4103 16.1066 20.7354 16.3276L25.0386 19.3827C25.3766 19.6167 25.6106 19.8897 25.7536 20.2147C25.8836 20.5398 25.9616 20.8648 25.9616 21.2288Z" fill="white"/>
</svg>
