<svg width="28" height="26" viewBox="0 0 28 26" fill="none" xmlns="http://www.w3.org/2000/svg">
<path d="M25.7838 7.44587C25.7838 7.96154 25.3561 8.38918 24.8404 8.38918H2.201C1.68532 8.38918 1.25769 7.96154 1.25769 7.44587C1.25769 6.9302 1.68532 6.50256 2.201 6.50256H3.4839L3.96185 4.22604C4.41464 2.02499 5.35795 0 9.10603 0H17.9354C21.6835 0 22.6268 2.02499 23.0796 4.22604L23.5575 6.50256H24.8404C25.3561 6.50256 25.7838 6.9302 25.7838 7.44587Z" fill="white"/>
<path d="M26.3267 14.5671C26.138 12.4918 25.5845 10.2782 21.5471 10.2782H5.4983C1.46094 10.2782 0.920106 12.4918 0.718866 14.5671L0.0145278 22.2268C-0.0735145 23.1827 0.240922 24.1385 0.894951 24.8555C1.56156 25.585 2.50487 26 3.51107 26H5.87563C7.91318 26 8.30308 24.8303 8.55463 24.0631L8.80618 23.3084C9.09546 22.4406 9.17093 22.2268 10.3029 22.2268H16.7426C17.8746 22.2268 17.9123 22.3525 18.2393 23.3084L18.4909 24.0631C18.7424 24.8303 19.1323 26 21.1699 26H23.5343C24.5281 26 25.484 25.585 26.1506 24.8555C26.8046 24.1385 27.119 23.1827 27.031 22.2268L26.3267 14.5671ZM9.74949 17.1958H5.97625C5.46057 17.1958 5.03294 16.7681 5.03294 16.2525C5.03294 15.7368 5.46057 15.3092 5.97625 15.3092H9.74949C10.2652 15.3092 10.6928 15.7368 10.6928 16.2525C10.6928 16.7681 10.2652 17.1958 9.74949 17.1958ZM21.0693 17.1958H17.296C16.7804 17.1958 16.3527 16.7681 16.3527 16.2525C16.3527 15.7368 16.7804 15.3092 17.296 15.3092H21.0693C21.585 15.3092 22.0126 15.7368 22.0126 16.2525C22.0126 16.7681 21.585 17.1958 21.0693 17.1958Z" fill="white"/>
</svg>
