<svg width="26" height="26" viewBox="0 0 26 26" fill="none" xmlns="http://www.w3.org/2000/svg">
<path d="M21.4651 11.4884H19.0465C16.12 11.4884 14.5117 9.88 14.5117 6.95349V4.53488C14.5117 1.60837 16.12 0 19.0465 0H21.4651C24.3917 0 26 1.60837 26 4.53488V6.95349C26 9.88 24.3917 11.4884 21.4651 11.4884ZM19.0465 1.81395C17.1358 1.81395 16.3256 2.62419 16.3256 4.53488V6.95349C16.3256 8.86419 17.1358 9.67442 19.0465 9.67442H21.4651C23.3758 9.67442 24.1861 8.86419 24.1861 6.95349V4.53488C24.1861 2.62419 23.3758 1.81395 21.4651 1.81395H19.0465Z" fill="black"/>
<path d="M6.95349 26H4.53488C1.60837 26 0 24.3916 0 21.4651V19.0465C0 16.12 1.60837 14.5116 4.53488 14.5116H6.95349C9.88 14.5116 11.4884 16.12 11.4884 19.0465V21.4651C11.4884 24.3916 9.88 26 6.95349 26ZM4.53488 16.3256C2.62419 16.3256 1.81395 17.1358 1.81395 19.0465V21.4651C1.81395 23.3758 2.62419 24.186 4.53488 24.186H6.95349C8.86419 24.186 9.67442 23.3758 9.67442 21.4651V19.0465C9.67442 17.1358 8.86419 16.3256 6.95349 16.3256H4.53488Z" fill="black"/>
<path d="M5.74419 11.4884C2.57581 11.4884 0 8.91256 0 5.74419C0 2.57581 2.57581 0 5.74419 0C8.91256 0 11.4884 2.57581 11.4884 5.74419C11.4884 8.91256 8.91256 11.4884 5.74419 11.4884ZM5.74419 1.81395C3.57953 1.81395 1.81395 3.57953 1.81395 5.74419C1.81395 7.90884 3.57953 9.67442 5.74419 9.67442C7.90884 9.67442 9.67442 7.90884 9.67442 5.74419C9.67442 3.57953 7.90884 1.81395 5.74419 1.81395Z" fill="black"/>
<path d="M20.2558 26C17.0875 26 14.5117 23.4242 14.5117 20.2558C14.5117 17.0874 17.0875 14.5116 20.2558 14.5116C23.4242 14.5116 26 17.0874 26 20.2558C26 23.4242 23.4242 26 20.2558 26ZM20.2558 16.3256C18.0912 16.3256 16.3256 18.0912 16.3256 20.2558C16.3256 22.4205 18.0912 24.186 20.2558 24.186C22.4205 24.186 24.1861 22.4205 24.1861 20.2558C24.1861 18.0912 22.4205 16.3256 20.2558 16.3256Z" fill="black"/>
</svg>
