<svg width="26" height="26" viewBox="0 0 26 26" fill="none" xmlns="http://www.w3.org/2000/svg">
<path d="M21.6682 0H19.1985C16.3647 0 14.8699 1.49486 14.8699 4.32859V6.79836C14.8699 9.6321 16.3647 11.127 19.1985 11.127H21.6682C24.502 11.127 25.9968 9.6321 25.9968 6.79836V4.32859C25.9968 1.49486 24.502 0 21.6682 0Z" fill="#3B5EDF"/>
<path d="M6.81136 14.8572H4.34159C1.49486 14.8572 0 16.3521 0 19.1858V21.6556C0 24.5023 1.49486 25.9972 4.32859 25.9972H6.79836C9.6321 25.9972 11.127 24.5023 11.127 21.6686V19.1988C11.14 16.3521 9.6451 14.8572 6.81136 14.8572Z" fill="#3B5EDF"/>
<path d="M5.57648 11.153C8.65628 11.153 11.153 8.65628 11.153 5.57648C11.153 2.49668 8.65628 0 5.57648 0C2.49668 0 0 2.49668 0 5.57648C0 8.65628 2.49668 11.153 5.57648 11.153Z" fill="#3B5EDF"/>
<path d="M20.421 26C23.5008 26 25.9974 23.5033 25.9974 20.4235C25.9974 17.3437 23.5008 14.847 20.421 14.847C17.3412 14.847 14.8445 17.3437 14.8445 20.4235C14.8445 23.5033 17.3412 26 20.421 26Z" fill="#3B5EDF"/>
</svg>
