<svg width="340" height="340" viewBox="0 0 340 340" fill="none" xmlns="http://www.w3.org/2000/svg">
<circle cx="170" cy="170" r="170" fill="white" fill-opacity="0.1"/>
<circle cx="170" cy="170" r="141.378" fill="white" fill-opacity="0.1"/>
<circle cx="170" cy="170" r="112.755" fill="white" fill-opacity="0.1"/>
<circle cx="170" cy="170" r="84.1327" fill="white" fill-opacity="0.1"/>
<path d="M210.467 179.93C208.954 183.424 207.164 186.64 205.09 189.597C202.263 193.627 199.948 196.417 198.165 197.967C195.399 200.51 192.436 201.812 189.264 201.886C186.986 201.886 184.239 201.238 181.042 199.924C177.834 198.615 174.886 197.967 172.19 197.967C169.363 197.967 166.331 198.615 163.088 199.924C159.84 201.238 157.223 201.924 155.223 201.991C152.18 202.121 149.148 200.782 146.12 197.967C144.188 196.282 141.772 193.393 138.877 189.3C135.771 184.93 133.217 179.862 131.217 174.085C129.074 167.844 128 161.801 128 155.951C128 149.249 129.448 143.469 132.349 138.625C134.628 134.735 137.661 131.666 141.456 129.413C145.252 127.16 149.353 126.012 153.77 125.938C156.186 125.938 159.355 126.686 163.293 128.155C167.22 129.629 169.742 130.376 170.847 130.376C171.674 130.376 174.475 129.502 179.224 127.76C183.714 126.144 187.504 125.475 190.609 125.738C199.023 126.417 205.343 129.734 209.547 135.709C202.022 140.268 198.3 146.654 198.374 154.845C198.442 161.226 200.757 166.536 205.306 170.752C207.368 172.708 209.67 174.221 212.232 175.295C211.676 176.906 211.09 178.449 210.467 179.93ZM191.171 104.001C191.171 109.002 189.344 113.671 185.702 117.993C181.307 123.132 175.991 126.101 170.226 125.632C170.149 125.003 170.111 124.37 170.11 123.737C170.11 118.936 172.2 113.798 175.912 109.597C177.765 107.47 180.122 105.701 182.98 104.29C185.832 102.9 188.529 102.132 191.066 102C191.14 102.669 191.171 103.337 191.171 104.001Z" fill="white"/>
<path d="M155.145 225.4V228.036C155.145 228.582 155.042 229.097 154.836 229.582C154.63 230.055 154.345 230.473 153.982 230.836C153.618 231.2 153.194 231.485 152.709 231.691C152.236 231.897 151.727 232 151.182 232H146.418C145.873 232 145.358 231.897 144.873 231.691C144.4 231.485 143.982 231.2 143.618 230.836C143.255 230.473 142.97 230.055 142.764 229.582C142.558 229.097 142.455 228.582 142.455 228.036V225.4H145.527V228.036C145.527 228.279 145.612 228.485 145.782 228.655C145.964 228.812 146.176 228.891 146.418 228.891H151.182C151.424 228.891 151.63 228.812 151.8 228.655C151.982 228.485 152.073 228.279 152.073 228.036V225.4H155.145ZM150.982 233.618V235.909H149.636V237.818H147.345V235.909H145.909V233.618H150.982ZM160.121 228.891C160.315 228.891 160.448 229.036 160.521 229.327C160.606 229.606 160.648 229.976 160.648 230.436C160.648 230.909 160.612 231.291 160.539 231.582C160.479 231.861 160.339 232 160.121 232H159.357C158.909 232 158.479 231.915 158.066 231.745C157.666 231.564 157.315 231.327 157.012 231.036C156.721 230.733 156.485 230.382 156.303 229.982C156.133 229.582 156.048 229.158 156.048 228.709V222H159.157V228.709C159.157 228.83 159.236 228.891 159.394 228.891H160.121ZM160.125 232C159.907 232 159.767 231.861 159.707 231.582C159.634 231.291 159.598 230.909 159.598 230.436C159.598 229.976 159.64 229.606 159.725 229.327C159.798 229.036 159.931 228.891 160.125 228.891H161.398C161.458 228.891 161.507 228.873 161.543 228.836C161.592 228.8 161.616 228.758 161.616 228.709V225.8H164.725V228.709C164.725 228.77 164.773 228.824 164.87 228.873C164.967 228.909 165.101 228.927 165.27 228.927C165.428 228.927 165.549 228.909 165.634 228.873C165.731 228.824 165.78 228.77 165.78 228.709V225.8H168.852V228.673C168.852 228.842 168.931 228.927 169.089 228.927H169.907V225.4H173.016V232H169.089C168.434 232 167.852 231.83 167.343 231.491C167.089 231.648 166.755 231.782 166.343 231.891C165.931 231.988 165.561 232.036 165.234 232.036C164.919 232.036 164.555 231.994 164.143 231.909C163.743 231.824 163.416 231.697 163.161 231.527C162.907 231.697 162.634 231.818 162.343 231.891C162.052 231.964 161.737 232 161.398 232H160.125ZM164.707 224.218V221.927H166.052V220.018H168.343V221.927H169.78V224.218H164.707ZM186.814 228.891C187.008 228.891 187.141 229.036 187.214 229.327C187.299 229.606 187.341 229.976 187.341 230.436C187.341 230.909 187.305 231.291 187.232 231.582C187.172 231.861 187.032 232 186.814 232H186.087C185.917 232 185.759 231.988 185.614 231.964C185.469 231.939 185.323 231.903 185.178 231.855C184.741 232.533 184.166 233.079 183.45 233.491C182.747 233.903 181.972 234.109 181.123 234.109C180.469 234.109 179.85 233.982 179.269 233.727C178.699 233.485 178.196 233.152 177.759 232.727C177.323 232.303 176.978 231.806 176.723 231.236C176.469 230.667 176.341 230.061 176.341 229.418V226.164H179.45V229.327C179.45 229.558 179.493 229.776 179.578 229.982C179.662 230.188 179.778 230.37 179.923 230.527C180.081 230.673 180.262 230.788 180.469 230.873C180.675 230.958 180.893 231 181.123 231C181.353 231 181.566 230.958 181.759 230.873C181.966 230.788 182.141 230.673 182.287 230.527C182.444 230.37 182.566 230.188 182.65 229.982C182.747 229.776 182.796 229.558 182.796 229.327V221.982H185.887V228.727C185.887 228.836 185.953 228.891 186.087 228.891H186.814ZM189.35 228.891C189.483 228.891 189.55 228.806 189.55 228.636V225.436H192.659V228.691C192.659 229.139 192.568 229.57 192.387 229.982C192.217 230.382 191.98 230.733 191.677 231.036C191.387 231.327 191.041 231.564 190.641 231.745C190.241 231.915 189.811 232 189.35 232H186.805C186.587 232 186.447 231.861 186.387 231.582C186.314 231.291 186.277 230.909 186.277 230.436C186.277 229.976 186.32 229.606 186.405 229.327C186.477 229.036 186.611 228.891 186.805 228.891H189.35ZM191.896 233.618V235.909H190.55V237.818H188.259V235.909H186.823V233.618H191.896ZM193.568 232V222H196.677V232H193.568Z" fill="white"/>
</svg>
