<svg width="23" height="26" viewBox="0 0 23 26" fill="none" xmlns="http://www.w3.org/2000/svg">
<path d="M15.978 0H6.14137C1.22307 0 0 1.31415 0 6.55774V21.2086C0 24.6696 1.89966 25.4893 4.20268 23.0171L4.21569 23.0041C5.28262 21.8721 6.90905 21.9632 7.83285 23.1993L9.147 24.9558C10.2009 26.3481 11.9054 26.3481 12.9593 24.9558L14.2735 23.1993C15.2103 21.9502 16.8367 21.8591 17.9037 23.0041C20.2197 25.4763 22.1063 24.6566 22.1063 21.1955V6.55774C22.1194 1.31415 20.8963 0 15.978 0ZM5.56887 13.0114C4.85325 13.0114 4.26773 12.4259 4.26773 11.7102C4.26773 10.9946 4.85325 10.4091 5.56887 10.4091C6.2845 10.4091 6.87001 10.9946 6.87001 11.7102C6.87001 12.4259 6.2845 13.0114 5.56887 13.0114ZM5.56887 7.80683C4.85325 7.80683 4.26773 7.22132 4.26773 6.50569C4.26773 5.79007 4.85325 5.20455 5.56887 5.20455C6.2845 5.20455 6.87001 5.79007 6.87001 6.50569C6.87001 7.22132 6.2845 7.80683 5.56887 7.80683ZM16.5635 12.6861H9.40723C8.87376 12.6861 8.43138 12.2437 8.43138 11.7102C8.43138 11.1768 8.87376 10.7344 9.40723 10.7344H16.5635C17.097 10.7344 17.5393 11.1768 17.5393 11.7102C17.5393 12.2437 17.097 12.6861 16.5635 12.6861ZM16.5635 7.48155H9.40723C8.87376 7.48155 8.43138 7.03916 8.43138 6.50569C8.43138 5.97223 8.87376 5.52984 9.40723 5.52984H16.5635C17.097 5.52984 17.5393 5.97223 17.5393 6.50569C17.5393 7.03916 17.097 7.48155 16.5635 7.48155Z" fill="white"/>
</svg>
