<svg width="23" height="26" viewBox="0 0 23 26" fill="none" xmlns="http://www.w3.org/2000/svg">
<path d="M10.1175 26C9.53171 26 8.95808 25.8535 8.42109 25.5606C7.34709 24.9626 6.70026 23.8764 6.70026 22.656V16.1876C6.70026 15.5774 6.29751 14.662 5.91917 14.1983L1.3547 9.36529C0.585815 8.59641 0 7.27832 0 6.28976V3.48273C0 1.53001 1.47674 0.00445557 3.35623 0.00445557H19.4661C21.3212 0.00445557 22.8224 1.50561 22.8224 3.36069V6.04567C22.8224 7.32714 22.0535 8.77947 21.3334 9.49954L16.0489 14.1739C15.5363 14.601 15.1336 15.5408 15.1336 16.2974V21.5454C15.1336 22.6315 14.4501 23.8886 13.5958 24.4012L11.9116 25.4874C11.3624 25.8291 10.7399 26 10.1175 26ZM3.35623 1.83513C2.50192 1.83513 1.83067 2.55519 1.83067 3.48273V6.28976C1.83067 6.74133 2.19681 7.62005 2.66058 8.08382L7.31048 12.9778C7.93291 13.7467 8.54313 15.0282 8.54313 16.1754V22.6438C8.54313 23.437 9.09234 23.8276 9.32423 23.9496C9.83682 24.2303 10.4592 24.2303 10.9352 23.9374L12.6316 22.8512C12.9734 22.6438 13.3151 21.9847 13.3151 21.5454V16.2974C13.3151 14.9916 13.9497 13.5514 14.8651 12.7825L20.0886 8.15704C20.5035 7.74209 21.0039 6.75353 21.0039 6.03347V3.36069C21.0039 2.51858 20.3205 1.83513 19.4783 1.83513H3.35623Z" fill="black"/>
<path d="M4.08762 11.4766C3.91675 11.4766 3.7581 11.4277 3.59944 11.3423C3.17228 11.0738 3.03803 10.5002 3.30653 10.0731L9.32336 0.43153C9.59186 0.00437379 10.1533 -0.129875 10.5804 0.138623C11.0076 0.407121 11.1418 0.968527 10.8733 1.39568L4.8565 11.0372C4.68564 11.3179 4.39273 11.4766 4.08762 11.4766Z" fill="black"/>
</svg>
