<svg width="27" height="26" viewBox="0 0 27 26" fill="none" xmlns="http://www.w3.org/2000/svg">
<path d="M20.5347 26H6.46965C4.18407 26 2.09946 24.2777 1.72272 22.0634L0.052489 12.2711C-0.211229 10.7457 0.542264 8.78974 1.78551 7.81789L10.4882 0.990313C12.171 -0.338285 14.8207 -0.325971 16.516 1.00263L25.2188 7.81789C26.4495 8.78974 27.203 10.7457 26.9518 12.2711L25.2816 22.0634C24.9049 24.2408 22.7826 26 20.5347 26ZM13.4896 1.86377C12.8241 1.86377 12.1584 2.06056 11.6686 2.44192L2.96596 9.2695C2.25015 9.83538 1.7604 11.0902 1.9111 11.9759L3.58132 21.7682C3.80736 23.0599 5.12593 24.1547 6.46965 24.1547H20.5347C21.8784 24.1547 23.1969 23.0599 23.4229 21.7559L25.0931 11.9636C25.2438 11.0779 24.7416 9.81077 24.0384 9.25718L15.3357 2.44192C14.8333 2.06056 14.1678 1.86377 13.4896 1.86377Z" fill="black"/>
<path d="M13.5023 18.2374C11.2544 18.2374 9.4209 16.4413 9.4209 14.2393C9.4209 12.0373 11.2544 10.2412 13.5023 10.2412C15.7501 10.2412 17.5836 12.0373 17.5836 14.2393C17.5836 16.4413 15.7501 18.2374 13.5023 18.2374ZM13.5023 12.0865C12.2967 12.0865 11.3046 13.0583 11.3046 14.2393C11.3046 15.4203 12.2967 16.3921 13.5023 16.3921C14.7078 16.3921 15.6999 15.4203 15.6999 14.2393C15.6999 13.0583 14.7078 12.0865 13.5023 12.0865Z" fill="black"/>
</svg>
