<svg width="27" height="26" viewBox="0 0 27 26" fill="none" xmlns="http://www.w3.org/2000/svg">
<path d="M25.4615 8.1953L16.1074 0.856133C14.6631 -0.28316 12.328 -0.28316 10.8972 0.842885L1.54308 8.1953C0.490239 9.01665 -0.184659 10.752 0.0448061 12.0503L1.84003 22.5954C2.16399 24.4765 3.99971 26 5.94341 26H21.0611C22.9913 26 24.8406 24.4633 25.1645 22.5954L26.9597 12.0503C27.1757 10.752 26.5008 9.01665 25.4615 8.1953ZM13.5023 17.6408C11.6396 17.6408 10.1278 16.157 10.1278 14.3289C10.1278 12.5007 11.6396 11.017 13.5023 11.017C15.365 11.017 16.8768 12.5007 16.8768 14.3289C16.8768 16.157 15.365 17.6408 13.5023 17.6408Z" fill="#3B5EDF"/>
</svg>
