<svg width="23" height="26" viewBox="0 0 23 26" fill="none" xmlns="http://www.w3.org/2000/svg">
<path d="M22.1951 8.49756C20.8634 2.63805 15.7522 0 11.2624 0C11.2624 0 11.2624 0 11.2498 0C6.77266 0 1.64875 2.62537 0.317045 8.48488C-1.16686 15.0293 2.84095 20.5717 6.46827 24.0595C7.81266 25.3532 9.53757 26 11.2624 26C12.9873 26 14.7122 25.3532 16.0439 24.0595C19.6712 20.5717 23.679 15.042 22.1951 8.49756ZM11.2624 14.8517C9.05562 14.8517 7.26729 13.0634 7.26729 10.8566C7.26729 8.64976 9.05562 6.86146 11.2624 6.86146C13.4693 6.86146 15.2576 8.64976 15.2576 10.8566C15.2576 13.0634 13.4693 14.8517 11.2624 14.8517Z" fill="white"/>
</svg>
