<svg width="85" height="100" viewBox="0 0 85 100" fill="none" xmlns="http://www.w3.org/2000/svg">
<path d="M82.4666 77.9303C80.9543 81.4241 79.1642 84.64 77.0903 87.5968C74.2632 91.6274 71.9484 94.4175 70.1646 95.9669C67.3992 98.51 64.4363 99.8124 61.2636 99.8865C58.9859 99.8865 56.239 99.2383 53.0416 97.9235C49.8337 96.615 46.8856 95.9668 44.19 95.9668C41.3629 95.9668 38.3309 96.615 35.0878 97.9235C31.8398 99.2384 29.2232 99.9235 27.2226 99.9914C24.1801 100.121 21.1475 98.7815 18.1205 95.9668C16.1884 94.2817 13.7718 91.3929 10.8768 87.3004C7.77074 82.9302 5.21716 77.8624 3.21657 72.0848C1.07404 65.8444 0 59.8013 0 53.9509C0 47.2492 1.44812 41.4692 4.34864 36.6255C6.62821 32.7349 9.66082 29.6658 13.4564 27.4129C17.2519 25.1598 21.3531 24.0117 25.7696 23.9383C28.1862 23.9383 31.3552 24.6858 35.2934 26.1549C39.2204 27.6289 41.7419 28.3764 42.8475 28.3764C43.6739 28.3764 46.4752 27.5023 51.2237 25.7598C55.7144 24.1438 59.5043 23.4746 62.6092 23.7383C71.0225 24.4172 77.3433 27.7338 81.5469 33.709C74.0225 38.2681 70.3002 44.6536 70.3744 52.8454C70.4423 59.226 72.757 64.5358 77.3062 68.7517C79.3679 70.7084 81.6703 72.2207 84.232 73.2948C83.6765 74.9058 83.09 76.4489 82.4666 77.9303ZM63.1709 2.00059C63.1709 7.0017 61.3438 11.6713 57.7019 15.9934C53.307 21.1315 47.9912 24.1005 42.2265 23.632C42.1493 23.0033 42.1105 22.3704 42.1104 21.737C42.1104 16.9359 44.2005 11.7978 47.9122 7.59671C49.7652 5.4696 52.1219 3.70098 54.9798 2.2901C57.8316 0.900271 60.529 0.131655 63.066 0C63.1401 0.668549 63.1709 1.33727 63.1709 2.00059Z" fill="white"/>
</svg>
