<svg width="23" height="26" viewBox="0 0 23 26" fill="none" xmlns="http://www.w3.org/2000/svg">
<path d="M21.8301 15.6528L20.3574 13.2025C20.0315 12.6682 19.7448 11.6386 19.7448 11.013V8.57577C19.7448 3.84476 15.9 0 11.1821 0C6.45109 0.0130331 2.60632 3.84476 2.60632 8.57577V11C2.60632 11.6255 2.31959 12.6552 2.0068 13.1895L0.534061 15.6397C-0.026362 16.5912 -0.156693 17.6729 0.195201 18.6113C0.547094 19.5627 1.34211 20.3186 2.38476 20.6575C3.79233 21.1267 5.21294 21.4655 6.65961 21.7132C6.80298 21.7392 6.94634 21.7523 7.08971 21.7783C7.27217 21.8044 7.46767 21.8305 7.66316 21.8565C8.00202 21.9087 8.34088 21.9478 8.69274 21.9738C9.51382 22.052 10.3479 22.0911 11.1821 22.0911C12.0031 22.0911 12.8242 22.052 13.6323 21.9738C13.932 21.9478 14.2318 21.9217 14.5185 21.8826C14.7531 21.8565 14.9877 21.8305 15.2223 21.7914C15.3657 21.7783 15.509 21.7523 15.6524 21.7262C17.1121 21.4916 18.5588 21.1267 19.9664 20.6575C20.9699 20.3186 21.7389 19.5627 22.1038 18.5982C22.4687 17.6208 22.3645 16.5521 21.8301 15.6528ZM12.1335 10.3613C12.1335 10.9087 11.6903 11.3518 11.143 11.3518C10.5956 11.3518 10.1524 10.9087 10.1524 10.3613V6.32105C10.1524 5.77366 10.5956 5.33053 11.143 5.33053C11.6903 5.33053 12.1335 5.77366 12.1335 6.32105V10.3613Z" fill="white"/>
<path d="M14.845 23.4064C14.2976 24.9183 12.851 26 11.1567 26C10.1271 26 9.11047 25.5829 8.39364 24.8401C7.97658 24.4491 7.66379 23.9277 7.48132 23.3934C7.65075 23.4195 7.82018 23.4325 8.00265 23.4586C8.30241 23.4977 8.61521 23.5367 8.92801 23.5628C9.67089 23.628 10.4268 23.6671 11.1827 23.6671C11.9256 23.6671 12.6685 23.628 13.3984 23.5628C13.6721 23.5367 13.9457 23.5237 14.2064 23.4846C14.4149 23.4586 14.6235 23.4325 14.845 23.4064Z" fill="white"/>
</svg>
