<svg width="18" height="26" viewBox="0 0 18 26" fill="none" xmlns="http://www.w3.org/2000/svg">
<path d="M11.9167 0H5.41667C3.98061 0.00172018 2.60385 0.572955 1.5884 1.5884C0.572955 2.60385 0.00172018 3.98061 0 5.41667V20.5833C0.00172018 22.0194 0.572955 23.3961 1.5884 24.4116C2.60385 25.427 3.98061 25.9983 5.41667 26H11.9167C13.3527 25.9983 14.7295 25.427 15.7449 24.4116C16.7604 23.3961 17.3316 22.0194 17.3333 20.5833V5.41667C17.3316 3.98061 16.7604 2.60385 15.7449 1.5884C14.7295 0.572955 13.3527 0.00172018 11.9167 0V0ZM5.41667 2.16667H11.9167C12.7786 2.16667 13.6053 2.50908 14.2148 3.11857C14.8243 3.72806 15.1667 4.55471 15.1667 5.41667V17.3333H2.16667V5.41667C2.16667 4.55471 2.50908 3.72806 3.11857 3.11857C3.72806 2.50908 4.55471 2.16667 5.41667 2.16667V2.16667ZM11.9167 23.8333H5.41667C4.55471 23.8333 3.72806 23.4909 3.11857 22.8814C2.50908 22.2719 2.16667 21.4453 2.16667 20.5833V19.5H15.1667V20.5833C15.1667 21.4453 14.8243 22.2719 14.2148 22.8814C13.6053 23.4909 12.7786 23.8333 11.9167 23.8333V23.8333Z" fill="white"/>
<path d="M8.66665 22.75C9.26495 22.75 9.74998 22.265 9.74998 21.6667C9.74998 21.0684 9.26495 20.5833 8.66665 20.5833C8.06834 20.5833 7.58331 21.0684 7.58331 21.6667C7.58331 22.265 8.06834 22.75 8.66665 22.75Z" fill="white"/>
</svg>
