<svg width="27" height="26" viewBox="0 0 27 26" fill="none" xmlns="http://www.w3.org/2000/svg">
<path d="M26.0152 25.0244C26.0152 25.5577 25.573 26 25.0397 26H0.975572C0.442259 26 0 25.5577 0 25.0244C0 24.4911 0.442259 24.0489 0.975572 24.0489H25.0397C25.573 24.0489 26.0152 24.4911 26.0152 25.0244Z" fill="white"/>
<path d="M17.4191 3.26491L3.4489 17.2351C2.91558 17.7684 2.05708 17.7684 1.53678 17.2351H1.52377C-0.28429 15.414 -0.28429 12.4743 1.52377 10.6662L10.8242 1.3658C12.6453 -0.455267 15.585 -0.455267 17.4061 1.3658C17.9394 1.8731 17.9394 2.74461 17.4191 3.26491Z" fill="white"/>
<path d="M24.4821 8.42711L20.5148 4.45978C19.9815 3.92647 19.123 3.92647 18.6027 4.45978L4.63253 18.43C4.09922 18.9503 4.09922 19.8088 4.63253 20.3421L8.59985 24.3224C10.4209 26.1305 13.3606 26.1305 15.1817 24.3224L24.4691 15.022C26.3162 13.2009 26.3162 10.2482 24.4821 8.42711ZM13.998 20.173L12.4241 21.7599C12.0989 22.0851 11.5656 22.0851 11.2274 21.7599C10.9022 21.4347 10.9022 20.9014 11.2274 20.5632L12.8143 18.9763C13.1265 18.6641 13.6728 18.6641 13.998 18.9763C14.3232 19.3015 14.3232 19.8608 13.998 20.173ZM19.162 15.009L15.9882 18.1958C15.663 18.508 15.1297 18.508 14.7915 18.1958C14.4663 17.8706 14.4663 17.3373 14.7915 16.9991L17.9783 13.8123C18.2905 13.5001 18.8368 13.5001 19.162 13.8123C19.4872 14.1504 19.4872 14.6838 19.162 15.009Z" fill="white"/>
</svg>
