<svg width="27" height="20" viewBox="0 0 27 20" fill="none" xmlns="http://www.w3.org/2000/svg">
<path d="M17.794 1.44566L19.5684 4.99452C19.8075 5.48532 20.4493 5.95095 20.9905 6.05163L24.1996 6.58018C26.2509 6.91997 26.7291 8.40502 25.2567 9.89L22.7523 12.3943C22.337 12.8096 22.0979 13.6276 22.2364 14.2191L22.9537 17.3149C23.52 19.7563 22.2112 20.7128 20.0592 19.4291L17.0515 17.6421C16.5104 17.3149 15.6043 17.3149 15.0631 17.6421L12.0554 19.4291C9.90337 20.7002 8.59457 19.7563 9.16088 17.3149L9.8782 14.2191C9.99147 13.615 9.75236 12.797 9.33707 12.3818L6.83273 9.87742C5.36033 8.40502 5.83854 6.91997 7.88984 6.5676L11.099 6.03905C11.6401 5.95095 12.2819 5.47274 12.521 4.98194L14.2955 1.43308C15.2645 -0.479784 16.825 -0.479785 17.794 1.44566Z" fill="#FFBF00"/>
<path d="M8.49461 2.12365H0.943846C0.427877 2.12365 0 1.69578 0 1.17981C0 0.663839 0.427877 0.235962 0.943846 0.235962H8.49461C9.01058 0.235962 9.43846 0.663839 9.43846 1.17981C9.43846 1.69578 9.01058 2.12365 8.49461 2.12365Z" fill="#FFBF00"/>
<path d="M4.71923 19.7421H0.943846C0.427877 19.7421 0 19.3142 0 18.7983C0 18.2823 0.427877 17.8544 0.943846 17.8544H4.71923C5.2352 17.8544 5.66308 18.2823 5.66308 18.7983C5.66308 19.3142 5.2352 19.7421 4.71923 19.7421Z" fill="#FFBF00"/>
<path d="M2.20231 10.9329H0.943846C0.427877 10.9329 0 10.505 0 9.98901C0 9.47304 0.427877 9.04517 0.943846 9.04517H2.20231C2.71828 9.04517 3.14615 9.47304 3.14615 9.98901C3.14615 10.505 2.71828 10.9329 2.20231 10.9329Z" fill="#FFBF00"/>
</svg>
