<svg width="15" height="15" viewBox="0 0 15 15" fill="none" xmlns="http://www.w3.org/2000/svg">
<path d="M14.25 2.25H0.75C0.551088 2.25 0.360322 2.32902 0.21967 2.46967C0.0790176 2.61032 0 2.80109 0 3C0 3.19891 0.0790176 3.38968 0.21967 3.53033C0.360322 3.67098 0.551088 3.75 0.75 3.75H2.25V12.75C2.25018 13.3467 2.48729 13.9189 2.90921 14.3408C3.33113 14.7627 3.90332 14.9998 4.5 15H10.5C11.0967 14.9998 11.6689 14.7627 12.0908 14.3408C12.5127 13.9189 12.7498 13.3467 12.75 12.75V3.75H14.25C14.4489 3.75 14.6397 3.67098 14.7803 3.53033C14.921 3.38968 15 3.19891 15 3C15 2.80109 14.921 2.61032 14.7803 2.46967C14.6397 2.32902 14.4489 2.25 14.25 2.25ZM6.75 10.5C6.75 10.6989 6.67098 10.8897 6.53033 11.0303C6.38968 11.171 6.19891 11.25 6 11.25C5.80109 11.25 5.61032 11.171 5.46967 11.0303C5.32902 10.8897 5.25 10.6989 5.25 10.5V6.75C5.25 6.55109 5.32902 6.36032 5.46967 6.21967C5.61032 6.07902 5.80109 6 6 6C6.19891 6 6.38968 6.07902 6.53033 6.21967C6.67098 6.36032 6.75 6.55109 6.75 6.75V10.5ZM9.75 10.5C9.75 10.6989 9.67098 10.8897 9.53033 11.0303C9.38968 11.171 9.19891 11.25 9 11.25C8.80109 11.25 8.61032 11.171 8.46967 11.0303C8.32902 10.8897 8.25 10.6989 8.25 10.5V6.75C8.25 6.55109 8.32902 6.36032 8.46967 6.21967C8.61032 6.07902 8.80109 6 9 6C9.19891 6 9.38968 6.07902 9.53033 6.21967C9.67098 6.36032 9.75 6.55109 9.75 6.75V10.5Z" fill="#858585"/>
<path d="M6 1.5H9C9.19891 1.5 9.38968 1.42098 9.53033 1.28033C9.67098 1.13968 9.75 0.948912 9.75 0.75C9.75 0.551088 9.67098 0.360322 9.53033 0.21967C9.38968 0.0790176 9.19891 0 9 0H6C5.80109 0 5.61032 0.0790176 5.46967 0.21967C5.32902 0.360322 5.25 0.551088 5.25 0.75C5.25 0.948912 5.32902 1.13968 5.46967 1.28033C5.61032 1.42098 5.80109 1.5 6 1.5Z" fill="#858585"/>
</svg>
