<svg width="23" height="26" viewBox="0 0 23 26" fill="none" xmlns="http://www.w3.org/2000/svg">
<path d="M11.4998 13.907C7.59671 13.907 4.42004 10.787 4.42004 6.95349C4.42004 3.12 7.59671 0 11.4998 0C15.4029 0 18.5796 3.12 18.5796 6.95349C18.5796 10.787 15.4029 13.907 11.4998 13.907ZM11.4998 1.81395C8.61867 1.81395 6.26695 4.12372 6.26695 6.95349C6.26695 9.78326 8.61867 12.093 11.4998 12.093C14.381 12.093 16.7327 9.78326 16.7327 6.95349C16.7327 4.12372 14.381 1.81395 11.4998 1.81395Z" fill="black"/>
<path d="M22.0765 26C21.5717 26 21.1531 25.5888 21.1531 25.093C21.1531 20.9209 16.8192 17.5349 11.5001 17.5349C6.18095 17.5349 1.8469 20.9209 1.8469 25.093C1.8469 25.5888 1.42827 26 0.92345 26C0.418631 26 0 25.5888 0 25.093C0 19.9293 5.159 15.7209 11.5001 15.7209C17.8411 15.7209 23 19.9293 23 25.093C23 25.5888 22.5814 26 22.0765 26Z" fill="black"/>
</svg>
